<?xml version="1.0" encoding="utf-8"?>
<!-- Generator: Adobe Illustrator 16.0.0, SVG Export Plug-In . SVG Version: 6.00 Build 0)  -->
<!DOCTYPE svg PUBLIC "-//W3C//DTD SVG 1.1//EN" "http://www.w3.org/Graphics/SVG/1.1/DTD/svg11.dtd">
<svg version="1.1" xmlns="http://www.w3.org/2000/svg" xmlns:xlink="http://www.w3.org/1999/xlink" x="0px" y="0px" width="192px"
	 height="62px" viewBox="0 0 192 62" enable-background="new 0 0 192 62" xml:space="preserve">
<g id="Web_and_HQ" display="none">
	<g display="inline">
		<g>
			<defs>
				<path id="SVGID_1_" d="M308.164-31.42c-35.119,16.178-50.457,57.761-34.277,92.868c16.187,35.117,57.769,50.462,92.882,34.281
					c35.112-16.174,50.454-57.761,34.28-92.872c-11.818-25.628-37.153-40.725-63.627-40.722
					C327.612-37.864,317.65-35.797,308.164-31.42"/>
			</defs>
			<clipPath id="SVGID_2_">
				<use xlink:href="#SVGID_1_"  overflow="visible"/>
			</clipPath>
			
				<radialGradient id="SVGID_3_" cx="-208.6353" cy="423.1963" r="2.2627" gradientTransform="matrix(36.6844 -16.9043 -16.9043 -36.6844 15108.7402 12044.4385)" gradientUnits="userSpaceOnUse">
				<stop  offset="0" style="stop-color:#FFFFFF"/>
				<stop  offset="0.382" style="stop-color:#FFFFFF"/>
				<stop  offset="1" style="stop-color:#B1B3B5"/>
			</radialGradient>
			<polygon clip-path="url(#SVGID_2_)" fill="url(#SVGID_3_)" points="200.774,-11.633 389.279,-98.498 474.152,85.678 
				285.648,172.544 			"/>
		</g>
		<path fill="#E6E7E8" d="M290.791,78.688c0-42.817,70.929-126.412,97.354-94.892c-17.886-21.335-52.812-28.579-79.58-16.245
			c-35.589,16.399-51.075,58.319-34.678,93.897c4.188,9.102,10.018,15.462,17.046,21.729
			C290.847,81.697,290.791,80.205,290.791,78.688"/>
		<path fill="#9BA1A9" d="M366.283,79.451c14.207,4.506,23.249-5.733,22.6-5.321c-0.535,0.333-1.083,0.63-1.62,0.944
			c-24.79,14.571-51.835-18.643-61.284-44.595c27.308-30.965,44.387-44.769,55.834-44.183c0.163,0.01,1.094,0.128,0.947,0.073
			c-19.367-6.486-56.92,41.222-59.705,43.834C323.055,30.204,336.051,69.867,366.283,79.451 M295.169,87.849
			c-0.955-11.694,4.221-26.373,13.95-39.044c0.128-0.179-0.985-1.589-0.985-1.589s-16.404,18.701-14.011,39.639
			C294.139,86.948,295.074,87.849,295.169,87.849"/>
		<path fill="#2A95BD" d="M407.602,38.189c2.253-33.358-14.723-49.52-17.373-52.365c-28.047-30.049-73.984,23.592-76.447,26.314
			c-8.644-22.879-6.309-17.126-9.242-24.383c-1.91,0-12.035-0.018-21.07,0.04c-0.519,0.004,15.499,37.782,16.965,40.253
			c-16.151,25.139-18.547,38.733-19.112,44.355c-0.238,2.277,12.777,14.228,12.793,14.466c-1.181-10.878,3.147-26.627,14.051-39.65
			c38.705,60.235,69.108,46.509,85.871,26.888C400.102,67.012,406.573,53.429,407.602,38.189 M404.751,32.56
			c-0.227,6.193-1.039,10.988-1.888,15.672c-2.812,15.483-9.925,23.247-16.744,28.008c-23.705,16.53-53.532-20.06-62.973-46.024
			c37.461-42.47,55.453-52.906,67.816-37.992C395.495-2.314,405.522,11.839,404.751,32.56"/>
		<path fill="#1A191A" d="M-246.367-12.284l5.212,49.761c0.286,4.267,0.823,9.644,0.823,16.637
			c2.476-5.904,6.735-13.868,9.623-19.11l26.266-47.288h20.769l-53.755,96.241h-17.463l-11.976-96.241H-246.367z"/>
		<path fill="#1A191A" d="M-159.206,11.233l-15.255,72.046h-18.42l14.7-69.178L-159.206,11.233 M-153.727-6.5
			c0,5.989-4.83,10.832-10.839,10.832c-5.872,0-10.709-4.842-10.709-10.832c0-6.03,4.97-10.858,10.979-10.858
			C-158.418-17.358-153.727-12.529-153.727-6.5"/>
		<path fill="#1A191A" d="M-131.173,10.546c1.114,2.325,2.217,7.416,1.649,11.399c6.209-6.324,12.818-10.71,19.678-10.71
			c2.612,0,3.855,0.252,6.329,1.514l-7.979,16.216c-1.638-0.974-3.304-1.375-5.361-1.375c-3.568,0-7.561,2.049-13.326,9.616
			l-9.778,46.072h-18.414l9.9-46.479c1.916-8.808,1.648-14.994,0.254-19.511L-131.173,10.546z"/>
		<path fill="#1A191A" d="M-61.797,25.527h-12.238l-7.442,35.341c-0.551,2.339-0.672,4.532-0.672,6.193
			c0,3.844,2.062,5.067,6.173,5.067c1.651,0,4.818-0.545,6.873-1.383v11.163c-5.341,2.058-10.848,3.008-15.668,3.008
			c-10.591,0-16.642-5.219-16.642-12.081c0-2.496,0.274-5.774,0.957-9.089l8.122-38.22h-6.999l2.745-12.656h7.003
			c1.386-6.87,2.345-11.412,4.266-16.644l19.383-4.664c-2.053,6.45-4.113,14.168-5.631,21.307h16.371L-61.797,25.527z"/>
		<path fill="#1A191A" d="M-27.43,11.092l-9.624,45.229c-0.833,3.729-1.362,7.551-1.362,9.488c0,3.018,2.17,5.362,4.391,5.362
			c5.636,0,12.384-6.052,15.129-10.454l9.752-45.796L9.42,11.235L-1.988,64.978c-0.973,4.695-1.731,12.968,5.643,13.705
			l-20.089,6.938c-1.653-2.483-3.017-6.051-3.304-9.354c-5.218,4.797-12.091,8.782-20.346,8.782
			c-10.86,0-17.185-5.479-17.185-14.296c0-2.608,0.282-6.053,1.384-11.123l9.469-45.101L-27.43,11.092z"/>
		<path fill="#1A191A" d="M75.882,33.645l-5.637,26.651c-1.25,6.076-0.483,16.279,6.612,18.423l-19.258,6.76
			c-3.305-2.203-4.819-5.908-5.373-8.661c-5.215,5.492-11,8.377-18.701,8.377c-12.772,0-19.38-7.837-19.38-22.419
			c0-16.902,6.453-31.884,14.849-40.275c7.696-7.699,16.367-11.013,28.049-11.013c8.254,0,17.466,1.384,23.393,4.821
			C78.911,20.578,76.985,28.28,75.882,33.645 M54.578,25.796c-4.534,0-7.973,0.269-12.92,6.048
			c-5.777,6.879-8.674,20.743-8.674,30.096c0,6.37,1.651,9.107,5.639,9.107c5.773,0,11.693-5.928,13.603-10.998l7.29-33.151
			C58.691,26.34,56.223,25.796,54.578,25.796"/>
		<path fill="#1A191A" d="M106.959,54.68c-1.798,8.247-1.647,16.408-0.459,18.572c1.415,2.609,4.762,5.744,5.449,5.467
			c-3.296,1.241-15.868,5.924-19.506,6.752c0,0-4.671-1.542-6.103-13.875c-0.266-2.456-0.298-7.032,0.813-12.118
			c0,0,16.834-64.837,18.917-72.52l19.549-6.276C123.536-12.349,106.959,54.68,106.959,54.68"/>
		<path fill="#2A95BD" d="M167.578-12.284c12.923,0,20.072,1.37,24.761,4.388c6.038,3.72,9.612,10.036,9.612,17.476
			c0,16.485-7.853,28.583-22.143,35.211c-4.794,2.191-12.934,3.279-20.485,3.279h-10.164l-7.446,35.205h-19.647l20.36-95.559
			H167.578 M152.591,32.4h9.626c7.436,0,11.548-1.655,14.029-4.657c2.89-3.45,4.952-8.956,4.952-14.472
			c0-6.301-3.457-10.032-10.592-10.032h-11.821L152.591,32.4z"/>
		<path fill="#2A95BD" d="M251.264-12.284c14.439,0,24.896,6.855,24.896,20.616c0,9.343-5.926,20.081-20.094,24.211
			c8.81,1.927,14.312,9.616,14.312,18.524c0,6.083-2.472,15.432-8.939,22.017c-7.013,7.168-14.979,10.191-29.815,10.191h-34.666
			l20.334-95.559H251.264 M219.503,67.598h12.494c4.009,0,7.447-1.099,9.932-2.743c4.236-2.92,7.257-8.81,7.257-14.167
			c0-6.718-3.694-8.947-12.213-8.947h-11.966L219.503,67.598 M228.312,25.941h11.276c5.213,0,7.683-1.097,10.031-2.749
			c3.024-2.21,5.776-6.048,5.776-10.744c0-5.912-2.609-8.373-10.595-8.373h-11.961L228.312,25.941z"/>
		<path fill="#1A191A" d="M420.616-32.466c6.705,0,11.99,5.217,11.99,11.843c0,6.779-5.285,11.991-12.065,11.991
			c-6.777,0-12.137-5.212-12.137-11.991c0-6.625,5.359-11.843,12.137-11.843H420.616z M420.472-30.375
			c-5.363,0-9.464,4.394-9.464,9.752c0,5.513,4.101,9.834,9.608,9.834c5.367,0.075,9.31-4.321,9.31-9.76
			c0-5.433-3.942-9.827-9.385-9.827H420.472z M418.381-14.069h-2.308v-12.437c1.267-0.22,2.606-0.373,4.324-0.373
			c2.083,0,3.12,0.373,3.939,0.97c0.747,0.525,1.273,1.487,1.273,2.607c0,1.565-1.121,2.533-2.464,2.98v0.147
			c1.122,0.441,1.715,1.417,2.089,2.979c0.375,1.937,0.596,2.681,0.897,3.126h-2.387c-0.373-0.445-0.669-1.562-0.966-3.274
			c-0.3-1.34-1.123-1.935-2.905-1.935h-1.494V-14.069z M418.381-21.072h1.566c1.71,0,3.199-0.516,3.199-2.009
			c0-1.192-0.739-2.011-2.977-2.011c-0.898,0-1.413,0.075-1.789,0.15V-21.072z"/>
		<rect x="-280.5" y="-45.978" fill="none" width="746.847" height="152.915"/>
	</g>
</g>
<g id="Web_and_HQ_Reversed" display="none">
	<g display="inline">
		<defs>
			<path id="SVGID_4_" d="M308.051-31.422c-35.109,16.175-50.45,57.75-34.269,92.847c16.182,35.115,57.752,50.453,92.86,34.279
				c35.104-16.174,50.444-57.751,34.275-92.856c-11.814-25.622-37.144-40.718-63.614-40.714
				C327.499-37.867,317.535-35.8,308.051-31.422"/>
		</defs>
		<clipPath id="SVGID_5_">
			<use xlink:href="#SVGID_4_"  overflow="visible"/>
		</clipPath>
		
			<radialGradient id="SVGID_6_" cx="-208.6377" cy="423.1982" r="2.2622" gradientTransform="matrix(36.6844 -16.9043 -16.9043 -36.6844 15108.7402 12044.4385)" gradientUnits="userSpaceOnUse">
			<stop  offset="0" style="stop-color:#FFFFFF"/>
			<stop  offset="0.382" style="stop-color:#FFFFFF"/>
			<stop  offset="1" style="stop-color:#B1B3B5"/>
		</radialGradient>
		<polygon clip-path="url(#SVGID_5_)" fill="url(#SVGID_6_)" points="200.681,-11.64 389.155,-98.49 474.005,85.649 
			285.534,172.502 		"/>
	</g>
	<path display="inline" fill="#E6E7E8" d="M290.683,78.663c0-42.807,70.912-126.385,97.331-94.873
		c-17.881-21.333-52.799-28.57-79.561-16.241c-35.582,16.394-51.07,58.308-34.671,93.875c4.183,9.105,10.02,15.463,17.04,21.731
		C290.738,81.674,290.683,80.174,290.683,78.663"/>
	<path display="inline" fill="#9BA1A9" d="M366.161,79.428c14.203,4.509,23.247-5.726,22.598-5.325
		c-0.541,0.337-1.086,0.632-1.621,0.951c-24.786,14.558-51.827-18.642-61.274-44.59c27.303-30.956,44.38-44.76,55.824-44.173
		c0.165,0.008,1.096,0.128,0.938,0.07c-19.363-6.48-56.904,41.217-59.688,43.83C322.938,30.189,335.929,69.842,366.161,79.428
		 M295.059,87.817c-0.952-11.69,4.214-26.361,13.95-39.033c0.131-0.187-0.986-1.58-0.986-1.58s-16.403,18.694-14.002,39.626
		C294.028,86.921,294.963,87.817,295.059,87.817"/>
	<path display="inline" fill="#2A95BD" d="M407.468,38.179c2.26-33.354-14.72-49.515-17.366-52.354
		c-28.044-30.048-73.972,23.584-76.429,26.305c-8.654-22.873-6.318-17.124-9.243-24.379c-1.915,0-12.035-0.016-21.072,0.042
		c-0.516,0.004,15.5,37.773,16.97,40.245c-16.154,25.134-18.543,38.726-19.116,44.343c-0.234,2.278,12.778,14.226,12.794,14.468
		c-1.181-10.874,3.148-26.619,14.05-39.643c38.688,60.222,69.095,46.497,85.853,26.883
		C399.967,66.996,406.441,53.402,407.468,38.179 M404.618,32.547c-0.221,6.194-1.04,10.981-1.886,15.67
		c-2.812,15.47-9.921,23.24-16.739,27.995c-23.702,16.526-53.52-20.057-62.962-46.008c37.45-42.466,55.441-52.898,67.805-37.99
		C395.366-2.321,405.392,11.828,404.618,32.547"/>
	<path display="inline" fill="#FFFFFF" d="M-246.371-12.29l5.208,49.753c0.285,4.261,0.824,9.638,0.824,16.63
		c2.475-5.899,6.734-13.867,9.619-19.107l26.261-47.276h20.769l-53.75,96.226h-17.461l-11.971-96.226H-246.371z"/>
	<path display="inline" fill="#FFFFFF" d="M-159.231,11.221l-15.25,72.036h-18.419l14.7-69.167L-159.231,11.221 M-153.751-6.505
		c0,5.988-4.826,10.829-10.836,10.829c-5.872,0-10.705-4.841-10.705-10.829c0-6.028,4.966-10.859,10.974-10.859
		C-158.442-17.365-153.751-12.533-153.751-6.505"/>
	<path display="inline" fill="#FFFFFF" d="M-131.2,10.538c1.113,2.322,2.217,7.41,1.648,11.402
		c6.207-6.329,12.813-10.714,19.675-10.714c2.612,0,3.856,0.248,6.326,1.513l-7.976,16.214c-1.638-0.969-3.304-1.375-5.362-1.375
		c-3.568,0-7.559,2.048-13.324,9.609l-9.774,46.071h-18.41l9.896-46.473c1.914-8.802,1.648-14.992,0.252-19.507L-131.2,10.538z"/>
	<path display="inline" fill="#FFFFFF" d="M-61.838,25.517h-12.239l-7.436,35.326c-0.553,2.346-0.679,4.54-0.679,6.192
		c0,3.843,2.068,5.07,6.177,5.07c1.651,0,4.817-0.537,6.874-1.375v11.153c-5.343,2.053-10.848,3.012-15.667,3.012
		c-10.589,0-16.64-5.217-16.64-12.084c0-2.491,0.279-5.776,0.958-9.093l8.121-38.202h-6.996l2.743-12.657h7.003
		c1.385-6.87,2.345-11.408,4.264-16.641l19.376-4.66c-2.053,6.451-4.11,14.161-5.626,21.301h16.368L-61.838,25.517z"/>
	<path display="inline" fill="#FFFFFF" d="M-27.475,11.087l-9.624,45.21c-0.833,3.728-1.365,7.553-1.365,9.49
		c0,3.016,2.171,5.363,4.392,5.363c5.635,0,12.384-6.05,15.127-10.448l9.75-45.792l18.561-3.685L-2.038,64.954
		c-0.977,4.692-1.734,12.968,5.639,13.698l-20.085,6.944c-1.651-2.482-3.021-6.06-3.304-9.352
		c-5.216,4.796-12.093,8.773-20.34,8.773c-10.861,0-17.184-5.481-17.184-14.288c0-2.603,0.281-6.049,1.387-11.119l9.464-45.094
		L-27.475,11.087z"/>
	<path display="inline" fill="#FFFFFF" d="M75.814,33.634l-5.637,26.646c-1.246,6.075-0.482,16.279,6.609,18.413l-19.255,6.755
		c-3.298-2.19-4.816-5.91-5.372-8.646c-5.211,5.488-10.998,8.366-18.694,8.366c-12.771,0-19.376-7.834-19.376-22.412
		c0-16.901,6.452-31.878,14.845-40.266c7.694-7.697,16.359-11.016,28.044-11.016c8.253,0,17.462,1.387,23.389,4.826
		C78.842,20.564,76.914,28.264,75.814,33.634 M54.508,25.787c-4.531,0-7.966,0.264-12.914,6.044
		c-5.774,6.876-8.672,20.745-8.672,30.09c0,6.357,1.65,9.106,5.637,9.106c5.776,0,11.691-5.928,13.6-11.004l7.291-33.139
		C58.628,26.325,56.16,25.787,54.508,25.787"/>
	<path display="inline" fill="#FFFFFF" d="M106.884,54.66c-1.796,8.241-1.645,16.404-0.462,18.564
		c1.425,2.613,4.767,5.744,5.45,5.468c-3.298,1.242-15.863,5.923-19.499,6.755c0,0-4.673-1.541-6.099-13.871
		c-0.27-2.456-0.301-7.035,0.811-12.114c0,0,16.83-64.827,18.907-72.506l19.552-6.28C123.461-12.357,106.884,54.66,106.884,54.66"/>
	<path display="inline" fill="#2A95BD" d="M167.488-12.29c12.919,0,20.073,1.369,24.756,4.386c6.04,3.72,9.621,10.036,9.621,17.47
		c0,16.484-7.858,28.581-22.145,35.212c-4.797,2.18-12.928,3.273-20.476,3.273h-10.164l-7.449,35.204h-19.637l20.35-95.546H167.488
		 M152.51,32.389h9.62c7.438,0,11.548-1.657,14.034-4.66c2.883-3.451,4.949-8.952,4.949-14.466c0-6.306-3.457-10.032-10.596-10.032
		h-11.813L152.51,32.389z"/>
	<path display="inline" fill="#2A95BD" d="M251.157-12.292c14.443,0,24.896,6.856,24.896,20.614c0,9.341-5.929,20.074-20.086,24.204
		c8.805,1.931,14.301,9.615,14.301,18.529c0,6.075-2.467,15.416-8.931,21.998c-7.01,7.167-14.986,10.203-29.815,10.203h-34.657
		l20.329-95.548H251.157 M219.403,67.572h12.494c4.006,0,7.451-1.101,9.929-2.744c4.239-2.906,7.266-8.799,7.266-14.156
		c0-6.722-3.702-8.947-12.214-8.947h-11.969L219.403,67.572 M228.214,25.927h11.274c5.211,0,7.687-1.096,10.025-2.749
		c3.03-2.209,5.78-6.046,5.78-10.74c0-5.909-2.61-8.37-10.595-8.37h-11.955L228.214,25.927z"/>
	<path display="inline" fill="#FFFFFF" d="M420.531-32.466c6.7,0,11.99,5.215,11.99,11.839c0,6.777-5.29,11.989-12.065,11.989
		c-6.776,0-12.139-5.211-12.139-11.989c0-6.624,5.362-11.839,12.139-11.839H420.531z M420.381-30.378
		c-5.356,0-9.456,4.393-9.456,9.751c0,5.512,4.1,9.833,9.606,9.833c5.365,0.073,9.306-4.321,9.306-9.757
		c0-5.434-3.94-9.827-9.381-9.827H420.381z M418.295-14.072h-2.308v-12.435c1.269-0.22,2.607-0.375,4.32-0.375
		c2.085,0,3.124,0.375,3.943,0.97c0.749,0.523,1.271,1.486,1.271,2.607c0,1.563-1.118,2.532-2.46,2.979v0.148
		c1.119,0.441,1.716,1.414,2.084,2.977c0.376,1.937,0.594,2.681,0.897,3.128h-2.386c-0.372-0.447-0.67-1.565-0.969-3.274
		c-0.296-1.342-1.118-1.935-2.9-1.935h-1.493V-14.072z M418.295-21.075h1.568c1.707,0,3.198-0.515,3.198-2.01
		c0-1.19-0.745-2.008-2.978-2.008c-0.899,0-1.414,0.074-1.789,0.145V-21.075z"/>
	<rect x="-280.5" y="-45.978" display="inline" fill="none" width="746.703" height="152.883"/>
</g>
<g id="Two_Color" display="none">
	<g display="inline">
		<defs>
			<rect id="SVGID_7_" x="-275.551" y="-41.742" width="742.935" height="140.704"/>
		</defs>
		<clipPath id="SVGID_8_">
			<use xlink:href="#SVGID_7_"  overflow="visible"/>
		</clipPath>
		<path clip-path="url(#SVGID_8_)" fill="#2A95BD" d="M408.812,38.292c2.27-33.425-14.744-49.626-17.402-52.472
			c-28.092-30.111-74.136,23.64-76.596,26.364c-8.666-22.92-6.324-17.16-9.266-24.436c-1.916,0-12.063-0.008-21.12,0.039
			c-0.521,0.008,15.535,37.869,17.008,40.34c-16.19,25.194-18.586,38.82-19.162,44.448c-0.232,2.283,12.812,14.251,12.822,14.491
			c-1.174-10.891,3.154-26.677,14.08-39.728c38.793,60.353,69.262,46.604,86.05,26.942
			C401.307,67.166,407.792,53.553,408.812,38.292 M405.962,32.641c-0.216,6.212-1.043,11.017-1.893,15.713
			c-2.817,15.511-9.944,23.297-16.764,28.063c-23.765,16.562-53.655-20.105-63.109-46.11c37.531-42.563,55.567-53.024,67.954-38.076
			C396.69-2.299,406.731,11.886,405.962,32.641"/>
		<path clip-path="url(#SVGID_8_)" fill="#191819" d="M-246.483-12.29l5.224,49.866c0.281,4.282,0.825,9.663,0.825,16.662
			c2.476-5.909,6.745-13.881,9.639-19.142l26.322-47.386h20.814l-53.872,96.446h-17.499l-11.997-96.446H-246.483z"/>
		<path clip-path="url(#SVGID_8_)" fill="#191819" d="M-159.148,11.276l-15.283,72.194h-18.457l14.729-69.319L-159.148,11.276
			 M-153.657-6.493c0,6.004-4.835,10.858-10.86,10.858c-5.882,0-10.724-4.854-10.724-10.858c0-6.036,4.973-10.877,10.998-10.877
			C-158.358-17.37-153.657-12.529-153.657-6.493"/>
		<path clip-path="url(#SVGID_8_)" fill="#191819" d="M-131.057,10.591c1.12,2.328,2.222,7.428,1.657,11.429
			c6.218-6.347,12.838-10.745,19.718-10.745c2.617,0,3.868,0.255,6.337,1.517l-7.997,16.257c-1.64-0.977-3.303-1.384-5.371-1.384
			c-3.574,0-7.574,2.053-13.353,9.645l-9.795,46.166h-18.452l9.917-46.58c1.927-8.824,1.653-15.03,0.257-19.552L-131.057,10.591z"/>
		<path clip-path="url(#SVGID_8_)" fill="#191819" d="M-61.54,25.603h-12.264l-7.454,35.41c-0.551,2.345-0.676,4.549-0.676,6.204
			c0,3.855,2.067,5.087,6.186,5.087c1.658,0,4.829-0.545,6.893-1.387V82.1c-5.352,2.057-10.877,3.02-15.703,3.02
			c-10.612,0-16.677-5.23-16.677-12.113c0-2.5,0.274-5.789,0.958-9.113l8.144-38.29h-7.017l2.752-12.685h7.022
			c1.387-6.887,2.345-11.431,4.27-16.679l19.427-4.675c-2.065,6.472-4.128,14.2-5.646,21.354h16.409L-61.54,25.603z"/>
		<path clip-path="url(#SVGID_8_)" fill="#191819" d="M-27.102,11.138l-9.641,45.322c-0.832,3.735-1.366,7.575-1.366,9.497
			c0,3.039,2.175,5.382,4.399,5.382c5.649,0,12.414-6.064,15.158-10.471l9.776-45.893l18.599-3.699L-1.605,65.132
			c-0.978,4.702-1.732,12.997,5.657,13.729l-20.132,6.953c-1.658-2.487-3.024-6.065-3.314-9.358
			c-5.227,4.795-12.115,8.788-20.384,8.788C-50.664,85.244-57,79.749-57,70.917c0-2.607,0.276-6.058,1.391-11.143l9.487-45.189
			L-27.102,11.138z"/>
		<path clip-path="url(#SVGID_8_)" fill="#191819" d="M76.424,33.739l-5.652,26.706c-1.243,6.081-0.479,16.32,6.625,18.452
			L58.1,85.674c-3.305-2.196-4.827-5.925-5.382-8.684c-5.227,5.514-11.024,8.402-18.741,8.402c-12.794,0-19.419-7.857-19.419-22.464
			c0-16.941,6.474-31.962,14.887-40.357c7.706-7.719,16.393-11.041,28.103-11.041c8.275,0,17.497,1.387,23.438,4.831
			C79.458,20.644,77.528,28.353,76.424,33.739 M55.074,25.873c-4.545,0-7.99,0.264-12.949,6.062
			c-5.785,6.896-8.689,20.793-8.689,30.16c0,6.37,1.653,9.119,5.65,9.119c5.791,0,11.717-5.932,13.632-11.019l7.309-33.219
			C59.2,26.416,56.725,25.873,55.074,25.873"/>
		<path clip-path="url(#SVGID_8_)" fill="#191819" d="M107.567,54.814c-1.809,8.255-1.659,16.445-0.47,18.61
			c1.426,2.616,4.784,5.746,5.46,5.473c-3.303,1.247-15.895,5.939-19.538,6.776c0,0-4.684-1.55-6.113-13.907
			c-0.265-2.478-0.301-7.038,0.808-12.147c0,0,16.867-64.967,18.95-72.667l19.597-6.292
			C124.181-12.352,107.567,54.814,107.567,54.814"/>
		<path clip-path="url(#SVGID_8_)" fill="#2A95BD" d="M168.292-12.288c12.96,0,20.123,1.375,24.816,4.404
			c6.05,3.727,9.649,10.054,9.649,17.505c0,16.517-7.871,28.646-22.192,35.28c-4.804,2.195-12.957,3.296-20.525,3.296h-10.19
			l-7.462,35.271h-19.692l20.402-95.757H168.292 M153.289,32.484h9.639c7.453,0,11.58-1.658,14.07-4.66
			c2.882-3.458,4.953-8.972,4.953-14.499c0-6.319-3.458-10.055-10.621-10.055h-11.835L153.289,32.484z"/>
		<path clip-path="url(#SVGID_8_)" fill="#2A95BD" d="M252.164-12.29c14.474,0,24.938,6.874,24.938,20.664
			c0,9.358-5.933,20.12-20.128,24.259c8.829,1.928,14.346,9.638,14.346,18.568c0,6.083-2.48,15.458-8.965,22.051
			c-7.025,7.187-15.011,10.218-29.877,10.218H197.74l20.387-95.759H252.164 M220.34,67.747h12.527c4.002,0,7.45-1.088,9.938-2.74
			c4.249-2.92,7.286-8.819,7.286-14.185c0-6.737-3.716-8.972-12.247-8.972h-11.992L220.34,67.747 M229.152,26.011h11.307
			c5.227,0,7.708-1.096,10.053-2.753c3.038-2.211,5.795-6.057,5.795-10.763c0-5.923-2.616-8.387-10.621-8.387h-11.986
			L229.152,26.011z"/>
		<path clip-path="url(#SVGID_8_)" fill="#191819" d="M421.428-32.491c6.712,0,12.014,5.225,12.014,11.864
			c0,6.793-5.302,12.016-12.089,12.016c-6.791,0-12.165-5.223-12.165-12.016c0-6.64,5.374-11.864,12.165-11.864H421.428z
			 M421.274-30.4c-5.374,0-9.479,4.402-9.479,9.773c0,5.527,4.104,9.855,9.632,9.855c5.374,0.073,9.324-4.328,9.324-9.779
			c0-5.447-3.95-9.849-9.399-9.849H421.274z M419.185-14.057h-2.313v-12.46c1.27-0.227,2.612-0.379,4.329-0.379
			c2.09,0,3.135,0.379,3.953,0.973c0.751,0.523,1.274,1.494,1.274,2.613c0,1.569-1.118,2.536-2.466,2.983v0.152
			c1.122,0.441,1.717,1.417,2.095,2.983c0.371,1.944,0.593,2.688,0.89,3.136h-2.387c-0.373-0.448-0.671-1.569-0.974-3.287
			c-0.296-1.342-1.12-1.934-2.904-1.934h-1.497V-14.057z M419.185-21.075h1.57c1.711,0,3.207-0.52,3.207-2.016
			c0-1.193-0.747-2.012-2.986-2.012c-0.898,0-1.417,0.076-1.791,0.15V-21.075z"/>
	</g>
</g>
<g id="Two_Color_Reversed">
	<g>
		<path fill="#2A95BD" d="M183.662,33.59c0.61-9.004-3.975-13.37-4.689-14.135c-7.57-8.113-19.973,6.369-20.636,7.103
			c-2.335-6.175-1.706-4.624-2.498-6.584c-0.518,0-3.248-0.003-5.69,0.011c-0.139,0.002,4.187,10.202,4.583,10.868
			c-4.362,6.789-5.008,10.459-5.164,11.973c-0.061,0.617,3.453,3.841,3.457,3.906c-0.318-2.936,0.85-7.186,3.793-10.701
			c10.451,16.26,18.66,12.553,23.184,7.258C181.639,41.371,183.387,37.704,183.662,33.59 M182.894,32.069
			c-0.059,1.674-0.281,2.969-0.509,4.233c-0.761,4.178-2.679,6.274-4.518,7.56c-6.404,4.463-14.456-5.416-17.004-12.422
			c10.113-11.468,14.971-14.287,18.311-10.259C180.396,22.655,183.101,26.476,182.894,32.069"/>
		<path fill="#FFFFFF" d="M7.107,19.963l1.408,13.435c0.076,1.155,0.223,2.604,0.223,4.491c0.667-1.595,1.817-3.743,2.596-5.158
			l7.092-12.768h5.607L9.519,45.948H4.805L1.573,19.963H7.107z"/>
		<path fill="#FFFFFF" d="M30.638,26.313L26.52,45.762h-4.972l3.968-18.675L30.638,26.313 M32.118,21.525
			c0,1.617-1.303,2.925-2.926,2.925c-1.584,0-2.889-1.308-2.889-2.925c0-1.627,1.339-2.931,2.962-2.931
			C30.851,18.594,32.118,19.898,32.118,21.525"/>
		<path fill="#FFFFFF" d="M38.207,26.127c0.301,0.628,0.598,2.002,0.446,3.078c1.675-1.708,3.459-2.893,5.313-2.893
			c0.705,0,1.041,0.068,1.707,0.409L43.518,31.1c-0.441-0.262-0.89-0.372-1.447-0.372c-0.963,0-2.04,0.554-3.598,2.596
			l-2.639,12.438h-4.971l2.671-12.547c0.52-2.376,0.445-4.048,0.07-5.268L38.207,26.127z"/>
		<path fill="#FFFFFF" d="M56.937,30.171h-3.305l-2.009,9.541c-0.148,0.633-0.182,1.225-0.182,1.672
			c0,1.038,0.557,1.369,1.667,1.369c0.446,0,1.3-0.146,1.857-0.372v3.013c-1.443,0.555-2.931,0.814-4.231,0.814
			c-2.86,0-4.493-1.41-4.493-3.264c0-0.677,0.074-1.561,0.258-2.455l2.193-10.318h-1.891l0.742-3.418h1.891
			c0.375-1.855,0.633-3.08,1.151-4.494L55.82,21c-0.555,1.744-1.111,3.827-1.52,5.753h4.42L56.937,30.171z"/>
		<path fill="#FFFFFF" d="M66.215,26.275l-2.598,12.211c-0.224,1.004-0.368,2.04-0.368,2.56c0,0.813,0.586,1.447,1.185,1.447
			c1.522,0,3.346-1.633,4.084-2.819l2.634-12.366l5.011-0.994l-3.078,14.511c-0.265,1.264-0.467,3.501,1.523,3.696l-5.424,1.872
			c-0.447-0.666-0.814-1.631-0.894-2.521c-1.407,1.295-3.264,2.37-5.491,2.37c-2.933,0-4.641-1.479-4.641-3.86
			c0-0.702,0.074-1.632,0.375-3.001l2.556-12.177L66.215,26.275z"/>
		<path fill="#FFFFFF" d="M94.107,32.363l-1.523,7.195c-0.335,1.641-0.129,4.396,1.785,4.973l-5.199,1.824
			c-0.891-0.594-1.3-1.594-1.451-2.337c-1.408,1.483-2.969,2.262-5.048,2.262c-3.448,0-5.232-2.117-5.232-6.052
			c0-4.565,1.744-8.611,4.011-10.873c2.075-2.081,4.416-2.976,7.571-2.976c2.23,0,4.714,0.373,6.315,1.303
			C94.923,28.836,94.404,30.914,94.107,32.363 M88.355,30.245c-1.225,0-2.152,0.071-3.488,1.632c-1.559,1.86-2.342,5.6-2.342,8.125
			c0,1.718,0.445,2.459,1.521,2.459c1.561,0,3.157-1.6,3.672-2.969l1.97-8.951C89.467,30.391,88.8,30.245,88.355,30.245"/>
		<path fill="#FFFFFF" d="M102.497,38.041c-0.485,2.227-0.445,4.434-0.126,5.015c0.386,0.708,1.289,1.55,1.472,1.476
			c-0.89,0.337-4.282,1.599-5.265,1.824c0,0-1.262-0.416-1.646-3.748c-0.072-0.663-0.081-1.896,0.218-3.27
			c0,0,4.544-17.505,5.105-19.581l5.28-1.694C106.974,19.946,102.497,38.041,102.497,38.041"/>
		<path fill="#2A95BD" d="M118.86,19.963c3.489,0,5.422,0.372,6.685,1.187c1.631,1.004,2.6,2.709,2.6,4.716
			c0,4.451-2.122,7.718-5.978,9.506c-1.297,0.592-3.493,0.888-5.531,0.888h-2.745l-2.011,9.502h-5.304l5.496-25.799H118.86
			 M114.816,32.025h2.598c2.009,0,3.118-0.446,3.79-1.254c0.777-0.933,1.336-2.418,1.336-3.907c0-1.702-0.931-2.708-2.862-2.708
			h-3.188L114.816,32.025z"/>
		<path fill="#2A95BD" d="M141.456,19.963c3.899,0,6.721,1.852,6.721,5.566c0,2.522-1.6,5.422-5.423,6.536
			c2.378,0.521,3.863,2.598,3.863,5.004c0,1.64-0.668,4.164-2.415,5.941c-1.894,1.937-4.046,2.751-8.051,2.751h-9.356l5.492-25.799
			H141.456 M132.883,41.527h3.374c1.079,0,2.009-0.294,2.678-0.74c1.146-0.785,1.963-2.377,1.963-3.822
			c0-1.814-1.001-2.415-3.3-2.415h-3.232L132.883,41.527 M135.258,30.283h3.046c1.408,0,2.075-0.296,2.709-0.742
			c0.817-0.596,1.558-1.632,1.558-2.9c0-1.596-0.703-2.26-2.858-2.26h-3.229L135.258,30.283z"/>
		<path fill="#FFFFFF" d="M187.224,14.42c1.809,0,3.237,1.407,3.237,3.196c0,1.831-1.429,3.238-3.257,3.238
			c-1.83,0-3.277-1.408-3.277-3.238c0-1.789,1.447-3.196,3.277-3.196H187.224z M187.184,14.983c-1.448,0-2.556,1.187-2.556,2.633
			c0,1.489,1.107,2.655,2.596,2.655c1.448,0.021,2.514-1.166,2.514-2.634c0-1.467-1.065-2.654-2.533-2.654H187.184z M186.619,19.387
			h-0.622V16.03c0.343-0.061,0.704-0.102,1.166-0.102c0.563,0,0.844,0.102,1.065,0.263c0.201,0.142,0.342,0.403,0.342,0.704
			c0,0.423-0.302,0.684-0.664,0.804v0.04c0.303,0.121,0.463,0.383,0.564,0.805c0.1,0.523,0.16,0.724,0.24,0.844h-0.644
			c-0.1-0.12-0.182-0.423-0.263-0.886c-0.078-0.362-0.3-0.521-0.783-0.521h-0.402V19.387z M186.619,17.497h0.424
			c0.462,0,0.863-0.14,0.863-0.543c0-0.322-0.2-0.543-0.805-0.543c-0.24,0-0.382,0.021-0.482,0.041V17.497z"/>
	</g>
</g>
<g id="One_Color" display="none">
	<g display="inline">
		<defs>
			<rect id="SVGID_9_" x="-275.551" y="-41.742" width="742.269" height="140.581"/>
		</defs>
		<clipPath id="SVGID_10_">
			<use xlink:href="#SVGID_9_"  overflow="visible"/>
		</clipPath>
		<path clip-path="url(#SVGID_10_)" fill="#191819" d="M408.202,38.224c2.263-33.396-14.744-49.583-17.393-52.427
			c-28.075-30.082-74.069,23.617-76.527,26.337c-8.661-22.897-6.324-17.145-9.265-24.414c-1.908,0-12.039-0.008-21.09,0.042
			c-0.519,0.01,15.511,37.837,16.995,40.303c-16.178,25.171-18.572,38.788-19.152,44.408c-0.23,2.285,12.8,14.243,12.815,14.483
			c-1.181-10.883,3.146-26.66,14.063-39.689c38.759,60.296,69.19,46.552,85.974,26.928
			C400.693,67.074,407.176,53.471,408.202,38.224 M405.355,32.569c-0.222,6.219-1.049,11.014-1.897,15.705
			c-2.813,15.504-9.929,23.27-16.755,28.035c-23.738,16.554-53.609-20.078-63.051-46.069c37.498-42.524,55.512-52.976,67.895-38.036
			C396.089-2.334,406.121,11.839,405.355,32.569"/>
		<path clip-path="url(#SVGID_10_)" fill="#191819" d="M-246.507-12.317l5.215,49.819c0.281,4.281,0.827,9.663,0.827,16.659
			c2.476-5.91,6.741-13.875,9.632-19.128l26.293-47.35h20.795l-53.821,96.361h-17.482l-11.985-96.361H-246.507z"/>
		<path clip-path="url(#SVGID_10_)" fill="#191819" d="M-159.252,11.231l-15.271,72.128h-18.439l14.714-69.258L-159.252,11.231
			 M-153.769-6.526c0,6.001-4.832,10.85-10.852,10.85c-5.874,0-10.713-4.849-10.713-10.85c0-6.03,4.974-10.863,10.987-10.863
			C-158.465-17.389-153.769-12.556-153.769-6.526"/>
		<path clip-path="url(#SVGID_10_)" fill="#191819" d="M-131.185,10.543c1.115,2.325,2.217,7.422,1.653,11.418
			c6.211-6.338,12.829-10.732,19.7-10.732c2.615,0,3.864,0.254,6.329,1.517l-7.983,16.241c-1.642-0.973-3.304-1.376-5.368-1.376
			c-3.573,0-7.567,2.046-13.342,9.627l-9.785,46.121h-18.436l9.907-46.533c1.921-8.812,1.651-15.013,0.257-19.533L-131.185,10.543z"
			/>
		<path clip-path="url(#SVGID_10_)" fill="#191819" d="M-61.732,25.542h-12.252l-7.448,35.38c-0.552,2.35-0.675,4.547-0.675,6.2
			c0,3.85,2.062,5.079,6.182,5.079c1.655,0,4.821-0.543,6.883-1.378v11.158c-5.349,2.062-10.866,3.021-15.692,3.021
			c-10.6,0-16.659-5.214-16.659-12.097c0-2.492,0.279-5.784,0.958-9.098l8.139-38.267h-7.016l2.75-12.675h7.015
			c1.389-6.88,2.347-11.42,4.269-16.663l19.407-4.668c-2.062,6.461-4.121,14.185-5.636,21.332h16.391L-61.732,25.542z"/>
		<path clip-path="url(#SVGID_10_)" fill="#191819" d="M-27.324,11.095l-9.638,45.277c-0.831,3.736-1.361,7.572-1.361,9.494
			c0,3.022,2.174,5.378,4.392,5.378c5.644,0,12.403-6.063,15.147-10.464l9.767-45.859l18.58-3.69L-1.855,65.038
			c-0.976,4.699-1.728,12.979,5.654,13.721l-20.115,6.934c-1.658-2.467-3.022-6.045-3.309-9.344
			c-5.223,4.792-12.105,8.779-20.366,8.779c-10.877,0-17.204-5.48-17.204-14.305c0-2.607,0.272-6.056,1.383-11.136l9.482-45.153
			L-27.324,11.095z"/>
		<path clip-path="url(#SVGID_10_)" fill="#191819" d="M76.101,33.669l-5.645,26.683c-1.241,6.081-0.474,16.307,6.625,18.444
			l-19.286,6.767c-3.299-2.203-4.817-5.924-5.375-8.675c-5.222,5.5-11.012,8.397-18.723,8.397c-12.784,0-19.403-7.85-19.403-22.45
			c0-16.926,6.472-31.936,14.872-40.322c7.698-7.711,16.379-11.029,28.076-11.029c8.269,0,17.482,1.383,23.418,4.828
			C79.138,20.585,77.206,28.292,76.101,33.669 M54.773,25.813c-4.543,0-7.982,0.266-12.933,6.05
			c-5.782,6.901-8.685,20.779-8.685,30.138c0,6.372,1.655,9.115,5.643,9.115c5.785,0,11.706-5.937,13.62-11.005l7.3-33.197
			C58.894,26.351,56.426,25.813,54.773,25.813"/>
		<path clip-path="url(#SVGID_10_)" fill="#191819" d="M107.225,54.725c-1.807,8.252-1.656,16.439-0.468,18.594
			c1.425,2.624,4.774,5.754,5.454,5.478c-3.296,1.246-15.885,5.931-19.529,6.767c0,0-4.671-1.553-6.102-13.896
			c-0.268-2.47-0.301-7.032,0.808-12.129c0,0,16.854-64.92,18.94-72.613l19.579-6.285C123.819-12.379,107.225,54.725,107.225,54.725
			"/>
		<path clip-path="url(#SVGID_10_)" fill="#191819" d="M167.896-12.317c12.944,0,20.1,1.374,24.793,4.402
			c6.047,3.726,9.639,10.043,9.639,17.491c0,16.503-7.871,28.622-22.176,35.25c-4.805,2.195-12.944,3.298-20.497,3.298H149.47
			l-7.46,35.235h-19.672l20.39-95.676H167.896 M152.903,32.419h9.636c7.445,0,11.562-1.661,14.056-4.66
			c2.883-3.454,4.95-8.964,4.95-14.483c0-6.317-3.463-10.046-10.611-10.046h-11.822L152.903,32.419z"/>
		<path clip-path="url(#SVGID_10_)" fill="#191819" d="M251.683-12.317c14.475,0,24.928,6.87,24.928,20.646
			c0,9.35-5.938,20.103-20.107,24.232c8.824,1.933,14.323,9.631,14.323,18.558c0,6.087-2.477,15.439-8.956,22.033
			c-7.015,7.176-14.997,10.199-29.851,10.199h-34.7l20.36-95.668H251.683 M219.893,67.66h12.516c4.002,0,7.451-1.102,9.923-2.749
			c4.257-2.917,7.284-8.813,7.284-14.173c0-6.728-3.711-8.955-12.231-8.955h-11.981L219.893,67.66 M228.705,25.949h11.287
			c5.225,0,7.706-1.093,10.052-2.751c3.024-2.208,5.776-6.049,5.776-10.753c0-5.916-2.607-8.376-10.604-8.376h-11.976
			L228.705,25.949z"/>
		<path clip-path="url(#SVGID_10_)" fill="#191819" d="M421.018-32.495c6.713,0,12.009,5.22,12.009,11.853
			c0,6.786-5.296,12.004-12.086,12.004c-6.779,0-12.149-5.218-12.149-12.004c0-6.633,5.37-11.853,12.149-11.853H421.018z
			 M420.868-30.406c-5.367,0-9.47,4.399-9.47,9.764c0,5.52,4.103,9.844,9.619,9.844c5.369,0.075,9.318-4.325,9.318-9.768
			c0-5.441-3.949-9.84-9.396-9.84H420.868z M418.779-14.079h-2.306V-26.53c1.263-0.226,2.605-0.376,4.323-0.376
			c2.086,0,3.123,0.376,3.946,0.973c0.751,0.522,1.276,1.49,1.276,2.61c0,1.566-1.126,2.533-2.464,2.979v0.151
			c1.119,0.442,1.714,1.415,2.088,2.98c0.376,1.943,0.594,2.688,0.893,3.133h-2.386c-0.37-0.446-0.669-1.568-0.974-3.282
			c-0.294-1.343-1.111-1.935-2.905-1.935h-1.492V-14.079z M418.779-21.09h1.569c1.717,0,3.207-0.519,3.207-2.015
			c0-1.191-0.749-2.012-2.983-2.012c-0.898,0-1.423,0.077-1.793,0.152V-21.09z"/>
	</g>
</g>
<g id="One_Color_Reversed" display="none">
	<g display="inline">
		<path fill="#FFFFFF" d="M408.945,38.318c2.271-33.427-14.75-49.633-17.402-52.48C363.44-44.276,317.39,9.484,314.938,12.204
			c-8.668-22.918-6.33-17.163-9.274-24.432c-1.916,0-12.062-0.014-21.116,0.036c-0.516,0.009,15.526,37.872,17.005,40.344
			c-16.196,25.194-18.594,38.823-19.16,44.45c-0.234,2.284,12.813,14.253,12.829,14.498c-1.189-10.899,3.154-26.683,14.078-39.73
			c38.785,60.36,69.262,46.601,86.052,26.944C401.431,67.198,407.927,53.582,408.945,38.318 M406.094,32.664
			c-0.218,6.217-1.04,11.021-1.892,15.717c-2.825,15.508-9.942,23.297-16.777,28.061c-23.759,16.572-53.66-20.097-63.112-46.108
			c37.537-42.571,55.571-53.032,67.969-38.082C396.82-2.28,406.864,11.906,406.094,32.664"/>
		<path fill="#FFFFFF" d="M-246.432-12.268l5.223,49.863c0.282,4.291,0.828,9.671,0.828,16.678
			c2.476-5.925,6.745-13.896,9.64-19.147l26.322-47.394h20.815l-53.876,96.448h-17.498l-12-96.448H-246.432z"/>
		<path fill="#FFFFFF" d="M-159.086,11.302l-15.287,72.195h-18.458l14.729-69.324L-159.086,11.302 M-153.594-6.473
			c0,6.006-4.839,10.86-10.865,10.86c-5.88,0-10.726-4.854-10.726-10.86c0-6.039,4.978-10.876,11-10.876
			C-158.297-17.349-153.594-12.512-153.594-6.473"/>
		<path fill="#FFFFFF" d="M-130.991,10.615c1.115,2.326,2.223,7.427,1.655,11.428c6.218-6.346,12.841-10.744,19.722-10.744
			c2.619,0,3.869,0.257,6.337,1.516l-7.994,16.258c-1.644-0.976-3.307-1.382-5.374-1.382c-3.576,0-7.574,2.052-13.357,9.639
			l-9.795,46.168h-18.453l9.918-46.578c1.923-8.823,1.654-15.029,0.256-19.552L-130.991,10.615z"/>
		<path fill="#FFFFFF" d="M-61.466,25.624h-12.263l-7.457,35.417c-0.552,2.345-0.675,4.546-0.675,6.215
			c0,3.835,2.063,5.075,6.188,5.075c1.654,0,4.826-0.545,6.89-1.386v11.182c-5.354,2.054-10.878,3.015-15.706,3.015
			c-10.611,0-16.679-5.227-16.679-12.104c0-2.505,0.278-5.782,0.959-9.115l8.146-38.299h-7.023l2.755-12.688h7.021
			c1.388-6.881,2.349-11.428,4.271-16.678l19.428-4.673c-2.062,6.468-4.125,14.199-5.641,21.351h16.408L-61.466,25.624z"/>
		<path fill="#FFFFFF" d="M-27.024,11.162l-9.644,45.322c-0.833,3.735-1.365,7.576-1.365,9.509c0,3.027,2.174,5.373,4.399,5.373
			c5.646,0,12.415-6.067,15.159-10.473l9.778-45.895l18.601-3.696L-1.525,65.165c-0.981,4.698-1.735,12.99,5.657,13.724
			l-20.135,6.95c-1.66-2.473-3.025-6.057-3.314-9.366c-5.227,4.813-12.118,8.801-20.388,8.801c-10.886,0-17.221-5.491-17.221-14.328
			c0-2.607,0.274-6.059,1.386-11.141l9.492-45.2L-27.024,11.162z"/>
		<path fill="#FFFFFF" d="M76.509,33.76l-5.65,26.711c-1.246,6.085-0.481,16.322,6.628,18.458l-19.302,6.779
			c-3.306-2.211-4.827-5.926-5.384-8.682c-5.226,5.505-11.022,8.394-18.741,8.394c-12.795,0-19.422-7.858-19.422-22.464
			c0-16.944,6.479-31.966,14.891-40.362c7.705-7.72,16.392-11.039,28.102-11.039c8.279,0,17.501,1.381,23.444,4.829
			C79.544,20.666,77.615,28.375,76.509,33.76 M55.16,25.899c-4.549,0-7.988,0.26-12.947,6.062
			c-5.789,6.905-8.696,20.788-8.696,30.156c0,6.384,1.658,9.125,5.649,9.125c5.793,0,11.718-5.935,13.634-11.011L60.112,27
			C59.285,26.442,56.812,25.899,55.16,25.899"/>
		<path fill="#FFFFFF" d="M107.66,54.844c-1.807,8.262-1.66,16.451-0.469,18.609c1.425,2.615,4.783,5.753,5.467,5.476
			c-3.303,1.249-15.903,5.939-19.551,6.779c0,0-4.682-1.556-6.11-13.915c-0.268-2.467-0.301-7.048,0.808-12.146
			c0,0,16.872-64.979,18.96-72.677l19.601-6.29C124.275-12.333,107.66,54.844,107.66,54.844"/>
		<path fill="#FFFFFF" d="M168.402-12.268c12.958,0,20.12,1.374,24.816,4.406c6.057,3.726,9.647,10.052,9.647,17.506
			c0,16.519-7.881,28.644-22.202,35.278c-4.809,2.203-12.962,3.302-20.515,3.302H149.95l-7.47,35.273h-19.684l20.407-95.765H168.402
			 M153.382,32.51h9.655c7.444,0,11.579-1.659,14.07-4.658c2.89-3.464,4.944-8.976,4.944-14.503c0-6.319-3.457-10.055-10.613-10.055
			h-11.843L153.382,32.51z"/>
		<path fill="#FFFFFF" d="M252.273-12.268c14.474,0,24.946,6.874,24.946,20.664c0,9.358-5.943,20.126-20.128,24.26
			c8.829,1.929,14.333,9.642,14.333,18.564c0,6.091-2.475,15.463-8.955,22.062c-7.03,7.187-15.017,10.215-29.883,10.215h-34.734
			l20.376-95.765H252.273 M220.442,67.774h12.533c4.005,0,7.452-1.091,9.939-2.737c4.256-2.921,7.286-8.824,7.286-14.196
			c0-6.736-3.716-8.963-12.246-8.963h-12.003L220.442,67.774 M229.262,26.034h11.308c5.225,0,7.715-1.094,10.062-2.752
			c3.034-2.209,5.784-6.059,5.784-10.769c0-5.918-2.611-8.383-10.621-8.383h-11.985L229.262,26.034z"/>
		<path fill="#FFFFFF" d="M421.51-32.482c6.718,0,12.02,5.227,12.02,11.867c0,6.793-5.302,12.018-12.099,12.018
			c-6.791,0-12.161-5.225-12.161-12.018c0-6.64,5.37-11.867,12.161-11.867H421.51z M421.358-30.388c-5.376,0-9.48,4.403-9.48,9.772
			c0,5.527,4.104,9.854,9.632,9.854c5.37,0.077,9.326-4.327,9.326-9.775c0-5.448-3.956-9.851-9.405-9.851H421.358z M419.27-14.046
			h-2.31v-12.463c1.264-0.224,2.608-0.377,4.324-0.377c2.094,0,3.133,0.377,3.951,0.977c0.758,0.522,1.277,1.491,1.277,2.61
			c0,1.567-1.123,2.536-2.469,2.984v0.149c1.124,0.444,1.713,1.418,2.094,2.985c0.375,1.944,0.595,2.688,0.894,3.134h-2.382
			c-0.374-0.446-0.679-1.568-0.982-3.283c-0.289-1.345-1.112-1.936-2.903-1.936h-1.494V-14.046z M419.27-21.061h1.568
			c1.717,0,3.206-0.519,3.206-2.019c0-1.194-0.744-2.015-2.986-2.015c-0.896,0-1.421,0.077-1.788,0.154V-21.061z"/>
	</g>
</g>
</svg>
